<svg width="60" height="60" viewBox="0 0 60 60" fill="none" xmlns="http://www.w3.org/2000/svg">
<g clip-path="url(#clip0_204_26)">
<path d="M18.7549 0H25.1999V2.695H21.4499V5.39H25.1999V8.085H18.7549V0ZM26.4874 0H32.9349V2.345H29.1849V2.8125H32.9349V8.2025H26.4874V5.7425H30.2374V5.2725H26.4874V0ZM34.2249 0H40.6674V2.345H36.9174V2.8125H40.6674V8.2025H34.2249V5.7425H37.9749V5.2725H34.2249V0Z" fill="#F8F8F8"/>
<path fill-rule="evenodd" clip-rule="evenodd" d="M29.9775 60L12.6175 55.18L7.5 11.7925H52.5L47.385 55.175L29.9775 60ZM17.6175 31.4325L18.095 36.7525H36.5375L35.92 43.6525L29.985 45.2575H29.98L24.055 43.6575L23.675 39.415H18.3325L19.0775 47.77L29.9775 50.795L40.895 47.77L42.225 32.86L42.355 31.4325L43.315 20.66H16.66L17.145 25.9825H37.485L37 31.4325H17.6175V31.4325Z" fill="#F8F8F8"/>
</g>
<defs>
<clipPath id="clip0_204_26">
<rect width="60" height="60" fill="white"/>
</clipPath>
</defs>
</svg>
