<svg width="60" height="60" viewBox="0 0 60 60" fill="none" xmlns="http://www.w3.org/2000/svg">
<g clip-path="url(#clip0_204_13)">
<path d="M58.8684 27.6621L32.6787 4.74024C31.9537 4.10642 30.9707 3.7504 29.9459 3.7504C28.921 3.7504 27.9381 4.10642 27.2131 4.74024L21.7675 9.50157L28.6675 15.5391C32.2916 14.468 35.7229 17.5043 34.4787 20.6578L41.1296 26.4773C45.7139 25.0945 49.3233 30.1102 45.88 33.1207C42.3322 36.225 36.4769 32.7844 38.38 28.7449L32.1724 23.3203V37.5996C35.5608 39.0691 35.1537 42.5039 33.3885 44.0449C32.5261 44.7991 31.3567 45.2228 30.1374 45.2228C28.9181 45.2228 27.7487 44.7991 26.8863 44.0449C24.5331 41.9824 25.4037 38.5477 28.393 37.4824V23.0684C25.6072 22.0711 25.0983 19.466 25.8965 17.7949L19.0943 11.8359L1.1318 27.5555C0.407114 28.1897 0 29.0498 0 29.9467C0 30.8435 0.407114 31.7037 1.1318 32.3379L27.3296 55.2598C28.0544 55.8935 29.0371 56.2495 30.0617 56.2495C31.0864 56.2495 32.0691 55.8935 32.7939 55.2598L58.8684 32.4445C59.5931 31.8103 60.0002 30.9502 60.0002 30.0533C60.0002 29.1565 59.5931 28.2963 58.8684 27.6621V27.6621Z" fill="white"/>
</g>
<defs>
<clipPath id="clip0_204_13">
<rect width="60" height="60" fill="white"/>
</clipPath>
</defs>
</svg>
