<svg width="60" height="60" viewBox="0 0 60 60" fill="none" xmlns="http://www.w3.org/2000/svg">
<g clip-path="url(#clip0_204_15)">
<mask id="mask0_204_15" style="mask-type:alpha" maskUnits="userSpaceOnUse" x="0" y="0" width="60" height="60">
<path d="M0 0H60V60H0V0Z" fill="white"/>
</mask>
<g mask="url(#mask0_204_15)">
<path d="M12.7 0H15.405V2.6725H17.88V0H20.585V8.09H17.88V5.3825H15.405V8.09H12.7025V0H12.7ZM24.14 2.6825H21.76V0H29.2275V2.6825H26.845V8.09H24.14V2.6825V2.6825ZM30.4125 0H33.2325L34.9675 2.8425L36.7 0H39.52V8.09H36.8275V4.08L34.9675 6.9575H34.92L33.0575 4.0825V8.09H30.4125V0V0ZM40.865 0H43.5725V5.4175H47.3725V8.0925H40.865V0V0Z" fill="#F8F8F8"/>
<path fill-rule="evenodd" clip-rule="evenodd" d="M12.615 55.18L7.5 11.7925H52.5L47.3825 55.175L29.975 60L12.615 55.18ZM22.9575 31.43L22.4725 25.98H42.835L43.31 20.66H16.66L18.095 36.7525H36.5375L35.92 43.6525L29.985 45.2575H29.98L24.055 43.6575L23.675 39.415H18.33L19.075 47.77L29.975 50.795L40.8925 47.77L42.2225 32.86L42.3525 31.4325H22.9575V31.43Z" fill="#F8F8F8"/>
</g>
</g>
<defs>
<clipPath id="clip0_204_15">
<rect width="60" height="60" fill="white"/>
</clipPath>
</defs>
</svg>
