<svg width="433" height="484" viewBox="0 0 433 484" fill="none" xmlns="http://www.w3.org/2000/svg">
<path d="M398.936 107.886C406.918 112.494 413.535 119.135 418.113 127.134C422.691 135.132 425.067 144.201 424.999 153.417V323.761C424.996 333.056 422.509 342.182 417.793 350.192C413.078 358.202 406.306 364.805 398.18 369.318L241.806 469.215C234.064 473.515 225.355 475.771 216.499 475.771C207.644 475.771 198.934 473.515 191.193 469.215L34.8182 369.318C26.696 364.808 19.927 358.208 15.2118 350.203C10.4967 342.198 8.00685 333.078 8 323.787V153.417C8.0022 144.122 10.4899 134.997 15.2052 126.987C19.9206 118.976 26.6921 112.373 34.8182 107.86L191.193 14.7652C199.163 10.3286 208.133 8 217.255 8C226.377 8 235.347 10.3286 243.318 14.7652L399.692 107.886H398.936V107.886Z" stroke="white" stroke-width="15" stroke-linecap="round" stroke-linejoin="round"/>
<line x1="263.601" y1="86.1016" x2="107.601" y2="349.102" stroke="white" stroke-width="20"/>
<line x1="222.113" y1="149.883" x2="311.113" y2="346.883" stroke="white" stroke-width="20"/>
<line x1="185" y1="271" x2="250" y2="271" stroke="white" stroke-width="20"/>
</svg>
