<svg width="60" height="60" viewBox="0 0 60 60" fill="none" xmlns="http://www.w3.org/2000/svg">
<g clip-path="url(#clip0_204_7)">
<path d="M59.1093 13.5736C59.1001 13.5463 59.0891 13.5197 59.0765 13.4939C59.0597 13.4435 59.0389 13.3945 59.0144 13.3474C58.9954 13.3181 58.9742 13.2903 58.9511 13.2642C58.9253 13.2257 58.8971 13.189 58.8667 13.1541C58.8397 13.1283 58.8058 13.1072 58.7765 13.0837C58.743 13.055 58.7078 13.0283 58.671 13.0041L47.3905 6.50952C47.248 6.42724 47.0863 6.38392 46.9218 6.38392C46.7572 6.38392 46.5955 6.42724 46.453 6.50952L35.1702 13.0076C35.134 13.0321 35.0996 13.0591 35.0671 13.0884C35.0352 13.1099 35.0046 13.1334 34.9757 13.1587C34.945 13.193 34.9168 13.2294 34.8913 13.2677C34.8714 13.2958 34.8456 13.3205 34.828 13.3509C34.8043 13.3983 34.784 13.4472 34.7671 13.4974C34.7577 13.5244 34.7425 13.549 34.7343 13.5771C34.7128 13.6566 34.7018 13.7385 34.7015 13.8208V26.1537L25.3007 31.5666V7.43413C25.3009 7.35138 25.2898 7.26899 25.2679 7.18921C25.2608 7.16108 25.2444 7.13647 25.2351 7.10952C25.2187 7.05952 25.1983 7.01093 25.1741 6.96421C25.1577 6.93374 25.1308 6.90913 25.1108 6.87983C25.0851 6.84137 25.0569 6.80458 25.0265 6.76968C24.9972 6.74467 24.9667 6.7212 24.9351 6.69936C24.9022 6.67087 24.8678 6.64426 24.8319 6.61968V6.61968L13.548 0.125143C13.4054 0.0428606 13.2438 -0.000457764 13.0792 -0.000457764C12.9146 -0.000457764 12.753 0.0428606 12.6105 0.125143L1.32881 6.61968C1.29218 6.64363 1.25768 6.67068 1.22569 6.70053C1.19337 6.72199 1.16245 6.74547 1.13311 6.77085C1.1028 6.80513 1.07499 6.84156 1.04991 6.87983C1.02881 6.90913 1.00303 6.93374 0.985453 6.96421C0.961439 7.01086 0.941444 7.05947 0.925687 7.10952C0.912888 7.13503 0.901542 7.16124 0.891703 7.18803C0.870144 7.2683 0.859114 7.35102 0.85889 7.43413V46.0709C0.858441 46.2359 0.901546 46.398 0.983852 46.5411C1.06616 46.6841 1.18475 46.8028 1.32764 46.8853L23.8862 59.8744C23.9364 59.8997 23.9885 59.9208 24.0421 59.9376C24.0667 59.947 24.0901 59.9611 24.1159 59.9681C24.2733 60.0103 24.439 60.0103 24.5964 59.9681C24.6198 59.9623 24.6397 59.9494 24.6608 59.9423C24.7174 59.9246 24.7723 59.9018 24.8249 59.8744L47.3905 46.8853C47.5334 46.8028 47.652 46.6841 47.7343 46.5411C47.8166 46.398 47.8597 46.2359 47.8593 46.0709V33.7357L58.6687 27.5119C58.8124 27.4289 58.9316 27.3092 59.0139 27.1651C59.0963 27.0209 59.1389 26.8575 59.1374 26.6916V13.8185C59.1381 13.736 59.1286 13.6538 59.1093 13.5736V13.5736ZM13.078 2.02475L22.4753 7.43296L13.0769 12.8447L3.68077 7.43413L13.078 2.02475ZM23.4198 9.056V32.6482L17.9671 35.7876L14.019 38.0611V14.4724L19.4718 11.333L23.4198 9.056ZM23.4198 57.4287L2.73858 45.5271V9.06069L6.68662 11.3318L12.1382 14.4724V39.6888C12.1406 39.7242 12.1453 39.7595 12.1522 39.7943C12.1551 39.8408 12.1613 39.887 12.171 39.9326V39.9326C12.1829 39.9689 12.1978 40.0042 12.2155 40.038C12.2286 40.0784 12.245 40.1176 12.2647 40.1552C12.2864 40.187 12.3099 40.2175 12.3351 40.2466C12.3585 40.2812 12.3844 40.3141 12.4124 40.3451V40.3451C12.4394 40.3708 12.4733 40.3896 12.5026 40.413C12.5346 40.4408 12.5683 40.4667 12.6034 40.4904V40.4904L23.4069 46.6052L23.4198 57.4287ZM24.3573 44.9869L14.9753 39.6759L24.8296 34.0029L35.6413 27.7791L45.0315 33.1849L38.1409 37.1177L24.3573 44.9869ZM45.9808 45.5224L25.2983 57.4345V46.6169L40.6171 37.8748L45.9808 34.8103V45.5224ZM45.9808 31.5619L42.0327 29.2966L36.58 26.1572V15.4439L40.528 17.7173L45.9808 20.8591V31.5619ZM46.9183 19.2244L37.5198 13.8138L46.9183 8.40444L56.3144 13.8126L46.9183 19.2244ZM47.8558 31.5619V20.8591L53.3202 17.7173L57.2671 15.4439V26.1537L47.8558 31.5619Z" fill="white"/>
</g>
<defs>
<clipPath id="clip0_204_7">
<rect width="60" height="60" fill="white"/>
</clipPath>
</defs>
</svg>
