<svg width="60" height="60" viewBox="0 0 60 60" fill="none" xmlns="http://www.w3.org/2000/svg">
<path d="M30 2.99465C46.0687 2.99465 58.425 15.8645 58.425 30C58.425 44.1355 46.0594 57.0053 30 57.0053C13.9313 57.0053 1.575 44.1355 1.575 30C1.575 15.8645 13.9406 2.99465 30 2.99465ZM30 0C13.4344 0 0 13.4225 0 30C0 46.5775 13.4344 60 30 60C46.5656 60 60 46.5775 60 30C60 13.4225 46.5656 0 30 0ZM20.4562 27.5936C19.7156 34.8128 17.1 34.0642 13.8844 34.0642L15.1688 21.4795C18.7313 21.4795 21.15 20.7487 20.4562 27.5936ZM9.13125 46.8093H12.5719L13.3875 38.8235C17.2406 38.8235 19.6312 39.3583 21.8438 35.4189C24.2906 31.1408 24.9281 23.5294 23.1844 19.7148C22.275 17.7184 20.8125 16.738 18.825 16.738H12.1969L9.13125 46.8093ZM26.5406 8.7344H29.9625L29.1469 16.7201C32.1 16.7201 34.8375 16.3102 36.1594 18.6275C37.5469 21.0517 36.8812 24.1533 35.3812 38.7879H31.9125C33.3562 24.6346 33.6281 23.4581 33.1031 22.3886C32.5969 21.3547 31.4438 21.5686 28.6594 21.5686L26.8969 38.7879H23.475L26.5406 8.7344V8.7344ZM47.3438 27.5936C46.5938 34.9198 43.9031 34.0642 40.7719 34.0642L42.0563 21.4795C45.6375 21.4795 48.0375 20.7487 47.3438 27.5936V27.5936ZM36.0188 46.8093H39.4688L40.2844 38.8235C44.3344 38.8235 46.575 39.2692 48.7406 35.4189C51.1875 31.1408 51.825 23.5294 50.0813 19.7148C49.1719 17.7184 47.7094 16.738 45.7219 16.738H39.0938L36.0188 46.8093V46.8093Z" fill="white"/>
</svg>
